<?xml version="1.0" encoding="iso-8859-1"?>
<!-- Generator: Adobe Illustrator 21.1.0, SVG Export Plug-In . SVG Version: 6.00 Build 0)  -->
<svg version="1.1" id="Layer_1" xmlns="http://www.w3.org/2000/svg" xmlns:xlink="http://www.w3.org/1999/xlink" x="0px" y="0px"
	 viewBox="0 0 114 102" style="enable-background:new 0 0 114 102;" xml:space="preserve">
<g>
	<g>
		<g>
			<g>
				<g>
					<g>
						<g>
							<g>
								<polygon style="fill:none;" points="22.182,62.543 22.197,62.543 22.197,62.541 22.197,62.453 22.182,62.453 								"/>
								<polygon style="fill:none;" points="40.688,51.766 40.677,51.766 40.677,51.771 40.676,51.766 40.677,51.772 40.677,51.848 
									40.688,51.848 40.688,51.845 40.69,51.848 40.688,51.837 								"/>
								<polygon style="fill:none;" points="22.375,62.852 22.375,62.9 22.419,62.9 22.422,62.9 22.422,62.849 22.375,62.849 
																	"/>
							</g>
						</g>
					</g>
				</g>
			</g>
			<g>
				<linearGradient id="SVGID_1_" gradientUnits="userSpaceOnUse" x1="86.938" y1="95.2747" x2="55.5751" y2="39.962">
					<stop  offset="0" style="stop-color:#000000;stop-opacity:0"/>
					<stop  offset="0.1313" style="stop-color:#000000;stop-opacity:0.1313"/>
					<stop  offset="1" style="stop-color:#000000"/>
				</linearGradient>
				<polygon style="opacity:0.15;fill:url(#SVGID_1_);" points="71.373,54.498 38.369,73.769 81.759,99.569 114.843,80.337 				"/>
			</g>
			<g>
				<linearGradient id="SVGID_2_" gradientUnits="userSpaceOnUse" x1="86.938" y1="95.2747" x2="55.5751" y2="39.962">
					<stop  offset="0" style="stop-color:#000000;stop-opacity:0"/>
					<stop  offset="0.1313" style="stop-color:#000000;stop-opacity:0.1313"/>
					<stop  offset="1" style="stop-color:#000000"/>
				</linearGradient>
				<polygon style="opacity:0.15;fill:url(#SVGID_2_);" points="71.373,54.498 38.369,73.769 81.759,99.569 114.843,80.337 				"/>
			</g>
		</g>
		<g>
			<polygon style="fill:none;" points="22.496,62.563 22.512,62.563 22.512,62.561 22.512,62.473 22.496,62.473 			"/>
			<polygon style="fill:none;" points="40.836,51.832 40.824,51.832 40.824,51.837 40.823,51.832 40.824,51.838 40.824,51.914 
				40.836,51.914 40.836,51.911 40.838,51.914 40.836,51.903 			"/>
			<polygon style="fill:none;" points="22.687,62.87 22.687,62.918 22.731,62.918 22.734,62.918 22.734,62.867 22.687,62.867 			"/>
		</g>
	</g>
</g>
<g>
	<g>
		<g style="enable-background:new    ;">
			<g>
				<polygon style="fill:#C9DE91;" points="56.996,21.621 56.881,62.379 38,51 38,10.563 				"/>
			</g>
			<g>
				<polygon style="fill:#587AA2;" points="56.996,32.621 56.881,62.379 31,66.427 31,36.668 				"/>
			</g>
			<g>
				<path style="fill:#91B5E0;" d="M30.003,62.301V32.543c-0.004,1.388,0.309,2.776,0.937,4.125l-0.115,29.758
					C30.196,65.077,29.999,63.689,30.003,62.301z"/>
			</g>
			<g>
				<path style="fill:#75A2D9;" d="M56.996,32.621l-26.057,4.047C28.512,31.453,30.959,26.092,38,22L56.996,32.621z"/>
			</g>
			<g>
				<path style="fill:#8DA159;" d="M83.939,21.698v40.758c-0.011,3.977-2.683,7.947-7.904,10.981
					c-3.47,2.017-7.664,3.358-12.096,4.048V36.727c4.432-0.689,8.741-2.031,12.211-4.047C81.372,29.645,83.929,25.674,83.939,21.698
					z"/>
			</g>
			<g>
				<path style="fill:#BCD676;" d="M76.026,10.562C86.605,16.67,86.661,26.571,76.15,32.68c-3.47,2.016-7.779,3.358-12.211,4.047
					l-6.943-15.106L38,10.563C48.511,4.454,65.446,4.454,76.026,10.562z"/>
			</g>
			<g>
				<polygon style="fill:#C9DE91;" points="63.939,36.727 63.939,77.485 56.881,62.379 56.996,21.621 				"/>
			</g>
			<g>
				<path style="fill:#E48C6C;" d="M56.996,46.621l7.073,15.106c-8.997,1.39-19.016,0.044-26.103-4.047
					c-3.486-2.013-5.822-4.442-7.027-7.011L56.996,46.621z"/>
			</g>
		</g>
	</g>
	<line style="fill:none;" x1="44.689" y1="83.375" x2="44.689" y2="44.5"/>
	<g>
		<defs>
			<path id="SVGID_3_" d="M63.939,61.727v15.758c-8.997,1.39-19.001,0.044-26.088-4.048c-3.486-2.013-5.823-4.441-7.027-7.011
				l0.115-15.758c1.205,2.569,3.541,4.999,7.027,7.011C45.054,61.771,54.942,63.117,63.939,61.727z"/>
		</defs>
		<use xlink:href="#SVGID_3_"  style="overflow:visible;fill:#DE7047;"/>
		<clipPath id="SVGID_4_">
			<use xlink:href="#SVGID_3_"  style="overflow:visible;"/>
		</clipPath>
		<rect x="47" y="37.517" style="opacity:0.1;clip-path:url(#SVGID_4_);fill:#231F20;" width="27.939" height="47.483"/>
	</g>
</g>
</svg>
